<?xml version="1.0" encoding="utf-8"?>
<!-- Generator: Adobe Illustrator 24.1.2, SVG Export Plug-In . SVG Version: 6.00 Build 0)  -->
<svg version="1.1" id="Layer_1" xmlns="http://www.w3.org/2000/svg" xmlns:xlink="http://www.w3.org/1999/xlink" x="0px" y="0px"
	 viewBox="0 0 630.4 393.2" style="enable-background:new 0 0 630.4 393.2;" xml:space="preserve">
<style type="text/css">
	.st0{fill:url(#SVGID_1_);}
	.st1{fill:none;stroke:#000000;stroke-miterlimit:10;}
	.st2{fill:url(#SVGID_2_);}
	.st3{fill:#FFFFFF;stroke:#000000;stroke-miterlimit:10;}
	.st4{fill:url(#SVGID_3_);}
	.st5{fill:#1A1A1A;stroke:#000000;stroke-miterlimit:10;}
	.st6{opacity:0.33;}
	.st7{fill:none;stroke:#FFFFFF;stroke-width:2;stroke-miterlimit:10;}
	.st8{fill:#FFFFFF;}
	.st9{opacity:0.76;fill:#FFFFFF;}
	.st10{font-family:'Courier';}
	.st11{font-size:20px;}
	.st12{opacity:0.71;fill:url(#SVGID_4_);stroke:#333232;stroke-width:2;stroke-miterlimit:10;}
</style>
<g>
	<linearGradient id="SVGID_1_" gradientUnits="userSpaceOnUse" x1="0.5439" y1="197.57" x2="63.6926" y2="197.57">
		<stop  offset="2.929978e-02" style="stop-color:#595958"/>
		<stop  offset="0.3407" style="stop-color:#525251"/>
		<stop  offset="0.8006" style="stop-color:#3E3E3E"/>
		<stop  offset="1" style="stop-color:#333333"/>
	</linearGradient>
	<path class="st0" d="M2.5,208.6c-2.7-6.6-2.6-17.5,0.1-24.1L58.8,45.6c2.7-6.6,4.9-6.2,4.9,1v302c0,7.1-2.2,7.6-4.8,0.9L2.5,208.6z
		"/>
	<path class="st1" d="M2.5,208.6c-2.7-6.6-2.6-17.5,0.1-24.1L58.8,45.6c2.7-6.6,4.9-6.2,4.9,1v302c0,7.1-2.2,7.6-4.8,0.9L2.5,208.6z
		"/>
</g>
<g>
	
		<linearGradient id="SVGID_2_" gradientUnits="userSpaceOnUse" x1="14.6643" y1="193.4523" x2="77.813" y2="193.4523" gradientTransform="matrix(-1 0 0 1 644.5082 0)">
		<stop  offset="2.929978e-02" style="stop-color:#595958"/>
		<stop  offset="0.3407" style="stop-color:#525251"/>
		<stop  offset="0.8006" style="stop-color:#3E3E3E"/>
		<stop  offset="1" style="stop-color:#333333"/>
	</linearGradient>
	<path class="st2" d="M627.9,204.5c2.7-6.6,2.6-17.5-0.1-24.1L571.6,41.5c-2.7-6.6-4.9-6.2-4.9,1v302c0,7.1,2.2,7.6,4.8,0.9
		L627.9,204.5z"/>
	<path class="st1" d="M627.9,204.5c2.7-6.6,2.6-17.5-0.1-24.1L571.6,41.5c-2.7-6.6-4.9-6.2-4.9,1v302c0,7.1,2.2,7.6,4.8,0.9
		L627.9,204.5z"/>
</g>
<path class="st3" d="M41.7,198.1c0.2,14.9-23.2,14.9-23,0C18.5,183.2,41.9,183.2,41.7,198.1z"/>
<g>
	<linearGradient id="SVGID_3_" gradientUnits="userSpaceOnUse" x1="61.6923" y1="196.5749" x2="568.6928" y2="196.5749">
		<stop  offset="1.170668e-03" style="stop-color:#454545"/>
		<stop  offset="0.9315" style="stop-color:#3E3E3E"/>
		<stop  offset="1" style="stop-color:#3D3D3D"/>
	</linearGradient>
	<path class="st4" d="M556.7,392.6h-483c-6.6,0-12-5.4-12-12v-368c0-6.6,5.4-12,12-12h483c6.6,0,12,5.4,12,12v368
		C568.7,387.2,563.3,392.6,556.7,392.6z"/>
	<path class="st1" d="M556.7,392.6h-483c-6.6,0-12-5.4-12-12v-368c0-6.6,5.4-12,12-12h483c6.6,0,12,5.4,12,12v368
		C568.7,387.2,563.3,392.6,556.7,392.6z"/>
</g>
<circle class="st5" cx="528.2" cy="361.1" r="13.5"/>
<circle class="st5" cx="528.2" cy="32.1" r="13.5"/>
<circle class="st5" cx="102.2" cy="32.1" r="13.5"/>
<circle class="st5" cx="102.2" cy="361.1" r="13.5"/>
<path class="st3" d="M588.2,197.4c-0.2,14.9,23.2,14.9,23,0C611.4,182.4,588,182.4,588.2,197.4z"/>
<g class="st6">
	<circle class="st7" cx="526.5" cy="117.2" r="6.5"/>
	<circle class="st8" cx="526.3" cy="117.1" r="2.5"/>
	<g>
		<g>
			<path class="st8" d="M527.6,110L527.6,110l0-10.6l3.4,3.4c0.2,0.2,0.4,0.3,0.6,0.3c0.2,0,0.5-0.1,0.6-0.3l0.5-0.5
				c0.2-0.2,0.3-0.4,0.3-0.6c0-0.2-0.1-0.5-0.3-0.6l-5.7-5.7c-0.2-0.2-0.4-0.3-0.6-0.3c-0.2,0-0.5,0.1-0.6,0.3L520,101
				c-0.2,0.2-0.3,0.4-0.3,0.6c0,0.2,0.1,0.5,0.3,0.6l0.5,0.5c0.2,0.2,0.4,0.3,0.6,0.3c0.2,0,0.4-0.1,0.6-0.3l3.4-3.4V110
				c0,0.5,0.4,0.9,0.9,0.9h0.7C527.2,110.9,527.6,110.5,527.6,110z"/>
		</g>
	</g>
	<g>
		<g>
			<path class="st8" d="M533.6,118.2L533.6,118.2l10.6,0l-3.4,3.4c-0.2,0.2-0.3,0.4-0.3,0.6s0.1,0.5,0.3,0.6l0.5,0.5
				c0.2,0.2,0.4,0.3,0.6,0.3c0.2,0,0.5-0.1,0.6-0.3l5.7-5.7c0.2-0.2,0.3-0.4,0.3-0.6c0-0.2-0.1-0.5-0.3-0.6l-5.7-5.7
				c-0.2-0.2-0.4-0.3-0.6-0.3c-0.2,0-0.5,0.1-0.6,0.3l-0.5,0.5c-0.2,0.2-0.3,0.4-0.3,0.6c0,0.2,0.1,0.4,0.3,0.6l3.4,3.4h-10.7
				c-0.5,0-0.9,0.4-0.9,0.9v0.7C532.7,117.8,533.1,118.2,533.6,118.2z"/>
		</g>
	</g>
	<g>
		<g>
			<path class="st8" d="M514,112.6C514,112.6,514,112.6,514,112.6l-0.2,0.5c0,0,0,0,0,0l-4.5,6.4c0,0,0,0,0,0h4.5c0,0,0,0,0,0v1.3
				c0,0,0,0,0,0h-6.7c0,0,0,0,0,0v-0.6c0,0,0,0,0,0c0,0,0-0.1,0-0.2c0-0.1,0.1-0.2,0.1-0.2c0,0,0,0,0,0l4.5-6.4c0,0,0,0,0,0h-4.4
				c0,0,0,0,0,0V112c0,0,0,0,0,0h6.5c0,0,0,0,0,0V112.6z"/>
		</g>
	</g>
	<g>
		<g>
			<path class="st8" d="M554.2,117.4C554.2,117.4,554.2,117.4,554.2,117.4l0,3.4c0,0,0,0,0,0h-1.6c0,0,0,0,0,0v-3.4c0,0,0,0,0,0
				l-3.2-5.4c0,0,0,0,0,0h1.4c0,0,0,0,0,0c0,0,0.2,0,0.3,0.1c0.1,0.1,0.2,0.3,0.2,0.3c0,0,0,0,0,0l1.6,2.9c0,0,0,0,0,0
				c0,0,0.2,0.3,0.2,0.5c0.1,0.2,0.2,0.5,0.2,0.5c0,0,0,0,0,0c0,0,0.1-0.3,0.2-0.5c0.1-0.2,0.2-0.5,0.2-0.5c0,0,0,0,0,0l1.6-2.9
				c0,0,0,0,0,0c0,0,0.1-0.2,0.2-0.2c0.1-0.1,0.3-0.1,0.3-0.1c0,0,0,0,0,0h1.4c0,0,0,0,0,0L554.2,117.4z"/>
		</g>
	</g>
	<g>
		<g>
			<path class="st8" d="M530.2,92.9C530.2,92.9,530.2,92.9,530.2,92.9l-1.6,0c0,0,0,0,0,0c0,0-0.2,0-0.3-0.1
				c-0.1-0.1-0.2-0.2-0.2-0.2c0,0,0,0,0,0l-2-3.4c0,0,0,0,0,0l-0.1,0.2c0,0,0,0,0,0l-1.9,3.1c0,0,0,0,0,0c0,0-0.1,0.1-0.2,0.2
				c-0.1,0.1-0.2,0.1-0.2,0.1c0,0,0,0,0,0h-1.5c0,0,0,0,0,0l2.9-4.5c0,0,0,0,0,0l-2.8-4.3c0,0,0,0,0,0h1.6c0,0,0,0,0,0
				c0,0,0.2,0,0.2,0c0.1,0,0.1,0.1,0.1,0.1c0,0,0,0,0,0l2,3.2c0,0,0,0,0,0l0.1-0.3c0,0,0,0,0,0l1.8-2.9c0,0,0,0,0,0
				c0,0,0.1-0.1,0.1-0.2c0.1,0,0.2-0.1,0.2-0.1c0,0,0,0,0,0h1.5c0,0,0,0,0,0l-2.8,4.2c0,0,0,0,0,0L530.2,92.9z"/>
		</g>
	</g>
</g>
<text transform="matrix(1 0 0 1 224.5874 357.4559)" class="st9 st10 st11">VIBRATION SENSOR</text>
<radialGradient id="SVGID_4_" cx="315.1926" cy="108.7645" r="206.7746" fx="505.2044" fy="190.3196" gradientUnits="userSpaceOnUse">
	<stop  offset="0" style="stop-color:#0071BC"/>
	<stop  offset="0.4388" style="stop-color:#006FBD"/>
	<stop  offset="0.5969" style="stop-color:#0068C1"/>
	<stop  offset="0.7096" style="stop-color:#005DC8"/>
	<stop  offset="0.8007" style="stop-color:#004CD2"/>
	<stop  offset="0.8787" style="stop-color:#0036DF"/>
	<stop  offset="0.9466" style="stop-color:#001BEF"/>
	<stop  offset="1" style="stop-color:#0000FF"/>
</radialGradient>
<path class="st12" d="M479.2,149.3h-328c-6.6,0-12-5.4-12-12v-57c0-6.6,5.4-12,12-12h328c6.6,0,12,5.4,12,12v57
	C491.2,143.9,485.8,149.3,479.2,149.3z"/>
</svg>
